<svg xmlns="http://www.w3.org/2000/svg" viewBox="0 0 690 690"><defs><style/></defs><g id="b740a97d-eec0-4aff-89af-c8878be7c731" data-name="Calque 2"><g id="ee64529d-b02b-4798-ba9f-b262c1f9217b" data-name="Calque 1"><g id="51f5b437-076e-40a7-8e9a-085698792da3" data-name="bf1d0e72-8f27-4cd7-b01f-6b6b971f243d"><path class="52f61219-53b8-4ae6-90a1-b99d26a77e47" d="M345 0C154.46 0 0 154.46 0 345s154.46 345 345 345 345-154.46 345-345S535.54 0 345 0zm66.7 244.51c0 1.32-.58 1.47-1.65 1.47h-25.93a44.23 44.23 0 0 0-12.53 1.57c-6.83 2-10.89 6.64-12.28 13.51a48.27 48.27 0 0 0-1 9.13c-.11 11 0 21.8 0 32.8a5 5 0 0 0 .08 1h49.52c1.92 0 2 .2 1.72 2-1.11 8.62-2.26 17.31-3.37 25.92-1 7.71-2 15.45-2.92 23.17-.15 1.27-.64 1.72-1.82 1.72-13.78 0-27.56.17-41.34.17H358V491h-53.87c0-1-.11-1.64-.11-2.35V357h-45.2c0-1-.1-1.53-.1-2.14v-48.67c0-1.91 0-2.19 1.89-2.19H304v-1.4c0-12.87-.06-25.74 0-38.61a76.36 76.36 0 0 1 6.72-32.16 56.42 56.42 0 0 1 30.77-29.42 74.74 74.74 0 0 1 28.1-5.39 403.78 403.78 0 0 1 40.56 1.69c1.06.09 1.51.44 1.51 1.58q0 22.11.04 44.22z" id="a45e8cff-922e-40b7-8645-d5d9ec0bcd2f" data-name="29718fbc-1e75-43f3-9901-48b322fc52c7"/></g></g></g></svg>