<svg xmlns="http://www.w3.org/2000/svg" viewBox="0 0 690 690"><defs><style>.fb2c5010-26b1-4197-9ddb-0938e8a9c901{fill:#fff}</style></defs><g id="20a103e9-154b-44c1-aea0-7a6462a6ee92" data-name="Calque 2"><g id="309842da-5671-462c-8fd0-566a56ae1714" data-name="Calque 1"><g id="9e4d42c4-1df1-4156-962a-07434888c5d6" data-name="2eab9107-baf6-411a-b9c7-29a6527bbeab"><g id="03cb7381-c2e3-42f3-bddd-59f79e847a0b" data-name="ac2f6da9-d531-4ff8-afff-84a8cf3e6405"><path class="fb2c5010-26b1-4197-9ddb-0938e8a9c901" d="M394.91 344.64a49.43 49.43 0 1 1-49.28-49.58 49.42 49.42 0 0 1 49.27 49.57z"/><path class="fb2c5010-26b1-4197-9ddb-0938e8a9c901" d="M466 281.41c-.14-13.84-3.64-27.12-12.87-38.21-11.45-13.76-27-18.93-44-19.15-42.37-.57-84.77-.47-127.14 0-13.67.13-26.78 3.68-37.74 12.75-13.8 11.42-19 27-19.25 43.94-.56 42.54-1.06 85.11.1 127.63.93 34.3 18.79 52.9 53 56.16 22.28 2.13 44.81 1.6 67.22 2.26v-1.52c20.62 0 41.24.35 61.84-.12 14-.31 27.51-3.3 38.89-12.41 14.53-11.64 19.72-27.74 20-45.18.49-42.04.39-84.1-.05-126.15zM345 420.82a76.27 76.27 0 1 1 .35 0zm79.76-137.71a17.86 17.86 0 1 1 17.81-17.91 17.86 17.86 0 0 1-17.78 17.9z"/><path class="fb2c5010-26b1-4197-9ddb-0938e8a9c901" d="M345 0C154.46 0 0 154.46 0 345s154.46 345 345 345 345-154.46 345-345S535.54 0 345 0zm149 399c-.64 6.5-1.23 13-1.94 19.51-4.15 38.18-29.26 65.1-67.19 71.69-8.23 1.43-16.61 1.92-24.92 2.85H291c-6.36-.63-12.72-1.21-19.08-1.89-38.6-4.17-65.43-29.09-72.13-67.3-1.43-8.2-1.92-16.57-2.84-24.86V290c.63-6.34 1.21-12.69 1.89-19 4.16-38.6 29.16-65.5 67.29-72.15 8.23-1.43 16.61-1.92 24.92-2.85H400c6.36.63 12.72 1.21 19.08 1.89 38.57 4.15 65.48 29.13 72.13 67.3 1.43 8.2 1.92 16.57 2.84 24.86z"/></g></g></g></g></svg>