<svg xmlns="http://www.w3.org/2000/svg" viewBox="0 0 106.1 92.34"><defs><style>.abf898c1-b8e0-49e2-80f1-07d2f22ce0f3{fill:#ffbb03;}</style></defs><title>like-icon</title><g id="80d50197-3897-4efa-acd1-f756857dd092" data-name="Calque 2"><g id="cabafff0-1059-4509-a111-ec88487eceba" data-name="Calque 1"><path class="abf898c1-b8e0-49e2-80f1-07d2f22ce0f3" d="M53.84,92.34a5.33,5.33,0,0,1-3.36-1.55L43,84.5C34,76.87,24.62,69,15.55,61.06A51.68,51.68,0,0,1,2.83,44.43,28.42,28.42,0,0,1,.32,27.69c1-7.33,3.19-12.85,6.79-17.35A26.89,26.89,0,0,1,27.67,0C35.56-.11,43,3.48,48.7,10.14a39.48,39.48,0,0,1,3.49,5.07l.4.65c.76-1.22,1.55-2.46,2.43-3.63,4.39-5.86,9.4-9.51,15.31-11.17,9.07-2.54,17.85-.46,25.38,6,10.26,8.81,13.14,22,7.69,35.31-3.23,7.88-8.49,15-16.07,21.79-4.89,4.37-9.94,8.71-14.83,12.91Q68,81,63.45,84.9c-1.06.93-2.07,1.9-3.13,2.93s-2,1.9-3,2.82A5.41,5.41,0,0,1,53.84,92.34ZM28.05,4h-.32a22.9,22.9,0,0,0-17.49,8.83c-3.13,3.92-5,8.82-6,15.42A24.53,24.53,0,0,0,6.43,42.7,47.69,47.69,0,0,0,18.18,58c9,7.9,18.39,15.78,27.42,23.4l7.46,6.29a5.35,5.35,0,0,0,.78.58,5.75,5.75,0,0,0,.84-.65c1-.86,1.93-1.79,2.86-2.7s2.14-2.08,3.29-3.08q4.52-3.94,9.07-7.83c4.87-4.18,9.91-8.51,14.77-12.85,7.12-6.37,12-13,15-20.32,4.83-11.8,2.43-23-6.59-30.76-6.57-5.64-13.87-7.38-21.7-5.2-5,1.41-9.34,4.58-13.18,9.71-.93,1.25-1.77,2.59-2.65,4-.42.68-.84,1.36-1.28,2L52.6,23.3l-2.36-3.65c-.51-.77-1-1.56-1.47-2.35a36,36,0,0,0-3.12-4.57C40.85,7.09,34.62,4,28.05,4Z"/></g></g></svg>