<svg xmlns="http://www.w3.org/2000/svg" viewBox="0 0 176 176"><defs><style>.\30 8145c2a-799b-44c1-b022-5b43a2e85bd0{fill:#ffeb0c;}</style></defs><title>Fichier 1</title><g id="f1467ac3-ccea-4915-afa5-282b254a6df7" data-name="Calque 2"><g id="58f94598-475f-492f-80c3-c5486d975308" data-name="Calque 1"><path class="08145c2a-799b-44c1-b022-5b43a2e85bd0" d="M111.68,79.74c-4.08,0-5.95,2.93-6.39,6.93h12.54v-.8C117.83,82,115.57,79.74,111.68,79.74Zm0,0c-4.08,0-5.95,2.93-6.39,6.93h12.54v-.8C117.83,82,115.57,79.74,111.68,79.74ZM88,0a88,88,0,1,0,88,88A88,88,0,0,0,88,0Zm52.68,70.79c0,.11,0,.22,0,.32L140,92.67h-7.35l-1.07-31A9.11,9.11,0,0,1,140.68,70.79ZM65.83,90.08c0,7.85-3.59,13.19-9.12,15.64A17.26,17.26,0,0,1,50,107c-7.92,0-12.88-4.27-14.89-10.18a21,21,0,0,1-1.26-6.72v-.63c0-7.85,3.71-13.18,9.24-15.64a18.55,18.55,0,0,1,7-1.26c7.86,0,12.7,4.28,14.71,10.18a21,21,0,0,1,1.08,6.72Zm17.49,21.48c-1.63,4.52-4.38,8.18-10.6,8.18a10,10,0,0,1-3.89-.57v-6.72s.87.12,1.31.12c3.27,0,4.89-1.07,5.77-3.52l1-2.39-11.69-33h9.55l6.16,20.6,6.15-20.6h9.49Zm42.51-18.89H105.16a8,8,0,0,0,4.9,6.59,8.44,8.44,0,0,0,3.19.56,9.55,9.55,0,0,0,8-3.71l4.31,4.9c-2.57,3.52-6.87,6-13,6-7.91,0-13.14-4.08-15.4-9.86a17.09,17.09,0,0,1-1.27-6.22V89.71c0-7.86,3.66-13.44,9.18-15.9a16.34,16.34,0,0,1,6.5-1.26c7.48,0,11.8,3.9,13.63,9.62a23,23,0,0,1,.69,6.72Zm10.43,14.18c-2.95,0-4.9-1.75-4.9-4.64s1.89-4.72,4.9-4.72,5,1.76,5,4.72S139.22,106.85,136.26,106.85ZM111.68,79.74c-4.08,0-5.95,2.93-6.39,6.93h12.54v-.8C117.83,82,115.57,79.74,111.68,79.74Zm-61.88,0c-5.15,0-7,4.59-7,9.73v.63c0,5.28,1.75,9.74,7,9.74s7-4.53,7-9.74v-.63C56.83,84.24,55,79.72,49.8,79.72Zm61.88,0c-4.08,0-5.95,2.93-6.39,6.93h12.54v-.8C117.83,82,115.57,79.74,111.68,79.74Zm0,0c-4.08,0-5.95,2.93-6.39,6.93h12.54v-.8C117.83,82,115.57,79.74,111.68,79.74Z"/></g></g></svg>