<svg xmlns="http://www.w3.org/2000/svg" viewBox="0 0 247 223.9"><defs><style>.a671de1a-82d3-46c1-ab57-01fde8670310{fill:#f06;}.\36 3b9571f-a6cf-420f-a76e-3ea0133cf59b{fill:#fff;}</style></defs><title>notif-icon</title><g id="b3a46dfd-d257-4540-9256-9f70f13386df" data-name="Calque 2"><g id="253b64dd-2d92-4337-9cae-459ff0696f6b" data-name="Calque 1"><path class="a671de1a-82d3-46c1-ab57-01fde8670310" d="M247,7.8v164a7.18,7.18,0,0,1-7.18,7.18H142.9a6.67,6.67,0,0,0-6.37,4.7l-12.25,39.63a.85.85,0,0,1-1.63-.08L110.4,183.7A6.67,6.67,0,0,0,104,179H7.73A7.75,7.75,0,0,1,0,171.27V7.17A7.17,7.17,0,0,1,7.17,0h232A7.82,7.82,0,0,1,247,7.8Z"/><path class="63b9571f-a6cf-420f-a76e-3ea0133cf59b" d="M123,63.6c1.45-2.26,2.71-4.49,4.24-6.53,3.88-5.19,8.72-9.26,15-11,9.31-2.6,17.69-.24,24.86,5.92,10.29,8.84,12.91,21.78,7.54,34.88-3.61,8.8-9.44,16-16.42,22.24-8.29,7.41-16.81,14.55-25.19,21.86-2.23,1.95-4.26,4.12-6.48,6.09-1.85,1.64-2.61,1.68-4.47.11-12.32-10.42-24.71-20.76-36.86-31.37A52.49,52.49,0,0,1,72.36,88.89,28.05,28.05,0,0,1,69.9,72.42c.89-6.34,2.69-12.25,6.73-17.3,9.63-12.06,28.2-14.8,40.66-.15a74.29,74.29,0,0,1,5,7.51Z"/></g></g></svg>