<svg xmlns="http://www.w3.org/2000/svg" viewBox="0 0 3174.9 929.95"><defs><style>.\32 9872171-3695-4093-a160-195e607e3737{fill:#80f;}.\38 2c20056-6839-4a19-91d9-61a53f65f14f{opacity:0.6;}</style></defs><title>pattern</title><g id="7056d9ac-0e88-42aa-9303-ef4b65e82a03" data-name="Calque 2"><g id="cb9d7797-ec1f-4d02-93f9-e63a17465c76" data-name="Calque 1"><rect class="29872171-3695-4093-a160-195e607e3737" x="230.86" y="426.26" width="1" height="277.52" transform="translate(-377.59 609.13) rotate(-71.88)"/><circle class="29872171-3695-4093-a160-195e607e3737" cx="362.98" cy="608.85" r="8"/><path class="29872171-3695-4093-a160-195e607e3737" d="M363,622.79a13.94,13.94,0,1,1,9.85-4.08A13.84,13.84,0,0,1,363,622.79Zm0-26.87a12.94,12.94,0,1,0,9.15,3.79A12.85,12.85,0,0,0,363,595.91Z"/><g class="82c20056-6839-4a19-91d9-61a53f65f14f"><path class="29872171-3695-4093-a160-195e607e3737" d="M363,630.21a21.36,21.36,0,1,1,15.1-6.26A21.22,21.22,0,0,1,363,630.21Zm0-41.72a20.36,20.36,0,1,0,14.4,6A20.22,20.22,0,0,0,363,588.49Z"/></g><circle class="29872171-3695-4093-a160-195e607e3737" cx="557.98" cy="637.35" r="8"/><path class="29872171-3695-4093-a160-195e607e3737" d="M558,651.29a13.94,13.94,0,1,1,9.85-4.08A13.84,13.84,0,0,1,558,651.29Zm0-26.87a12.94,12.94,0,1,0,9.15,3.79A12.85,12.85,0,0,0,558,624.41Z"/><g class="82c20056-6839-4a19-91d9-61a53f65f14f"><path class="29872171-3695-4093-a160-195e607e3737" d="M558,658.71a21.36,21.36,0,1,1,15.1-6.26A21.22,21.22,0,0,1,558,658.71ZM558,617a20.36,20.36,0,1,0,14.4,6A20.22,20.22,0,0,0,558,617Z"/></g><circle class="29872171-3695-4093-a160-195e607e3737" cx="453.32" cy="708.68" r="8"/><path class="29872171-3695-4093-a160-195e607e3737" d="M453.32,722.62a13.94,13.94,0,1,1,9.85-23.79h0a13.94,13.94,0,0,1-9.85,23.79Zm0-26.86a12.92,12.92,0,1,0,9.15,3.78A12.89,12.89,0,0,0,453.32,695.75Z"/><g class="82c20056-6839-4a19-91d9-61a53f65f14f"><path class="29872171-3695-4093-a160-195e607e3737" d="M453.32,730a21.36,21.36,0,1,1,15.1-36.46h0A21.36,21.36,0,0,1,453.32,730Zm0-41.71a20.34,20.34,0,1,0,14.4,6A20.3,20.3,0,0,0,453.32,688.33Z"/></g><circle class="29872171-3695-4093-a160-195e607e3737" cx="1241.06" cy="588.94" r="8"/><path class="29872171-3695-4093-a160-195e607e3737" d="M1241.06,602.86a13.93,13.93,0,1,1,9.85-23.78h0a13.93,13.93,0,0,1-9.85,23.78Zm0-26.86a12.93,12.93,0,1,0,9.15,3.78h0A12.89,12.89,0,0,0,1241.06,576Z"/><g class="82c20056-6839-4a19-91d9-61a53f65f14f"><path class="29872171-3695-4093-a160-195e607e3737" d="M1241.06,610.29a21.36,21.36,0,1,1,15.1-36.45h0a21.35,21.35,0,0,1-15.1,36.45Zm0-41.7a20.34,20.34,0,1,0,14.4,6h0A20.3,20.3,0,0,0,1241.06,568.59Z"/></g><circle class="29872171-3695-4093-a160-195e607e3737" cx="2048.02" cy="364.95" r="8"/><path class="29872171-3695-4093-a160-195e607e3737" d="M2048,378.88a13.94,13.94,0,1,1,9.85-23.79h0a13.94,13.94,0,0,1-9.85,23.79Zm0-26.87a12.94,12.94,0,1,0,9.15,3.79A12.85,12.85,0,0,0,2048,352Z"/><g class="82c20056-6839-4a19-91d9-61a53f65f14f"><path class="29872171-3695-4093-a160-195e607e3737" d="M2048,386.31a21.36,21.36,0,1,1,15.1-36.46h0a21.36,21.36,0,0,1-15.1,36.46Zm0-41.72a20.36,20.36,0,1,0,14.4,6h0A20.23,20.23,0,0,0,2048,344.59Z"/></g><circle class="29872171-3695-4093-a160-195e607e3737" cx="2190.52" cy="168.46" r="8"/><path class="29872171-3695-4093-a160-195e607e3737" d="M2190.52,182.39a13.94,13.94,0,1,1,9.85-23.79h0a13.94,13.94,0,0,1-9.85,23.79Zm0-26.87a12.94,12.94,0,1,0,9.15,3.79h0A12.85,12.85,0,0,0,2190.52,155.52Z"/><g class="82c20056-6839-4a19-91d9-61a53f65f14f"><path class="29872171-3695-4093-a160-195e607e3737" d="M2190.52,189.82a21.36,21.36,0,1,1,15.1-36.46h0a21.36,21.36,0,0,1-15.1,36.46Zm0-41.72a20.36,20.36,0,1,0,14.4,6h0A20.23,20.23,0,0,0,2190.52,148.1Z"/></g><circle class="29872171-3695-4093-a160-195e607e3737" cx="2301.51" cy="587.44" r="8"/><path class="29872171-3695-4093-a160-195e607e3737" d="M2301.51,601.36a13.93,13.93,0,1,1,9.85-4.07A13.89,13.89,0,0,1,2301.51,601.36Zm0-26.86a12.94,12.94,0,1,0,9.15,3.79A12.85,12.85,0,0,0,2301.51,574.5Z"/><g class="82c20056-6839-4a19-91d9-61a53f65f14f"><path class="29872171-3695-4093-a160-195e607e3737" d="M2301.51,608.79a21.35,21.35,0,1,1,15.1-6.25A21.29,21.29,0,0,1,2301.51,608.79Zm0-41.71a20.36,20.36,0,1,0,14.4,6A20.22,20.22,0,0,0,2301.51,567.08Z"/></g><circle class="29872171-3695-4093-a160-195e607e3737" cx="2534" cy="553.94" r="8"/><path class="29872171-3695-4093-a160-195e607e3737" d="M2534,567.87a13.94,13.94,0,1,1,9.85-23.79h0a13.94,13.94,0,0,1-9.85,23.79Zm0-26.87a12.94,12.94,0,1,0,9.15,3.79A12.85,12.85,0,0,0,2534,541Z"/><g class="82c20056-6839-4a19-91d9-61a53f65f14f"><path class="29872171-3695-4093-a160-195e607e3737" d="M2534,575.3a21.36,21.36,0,1,1,15.1-36.46h0A21.36,21.36,0,0,1,2534,575.3Zm0-41.72a20.36,20.36,0,1,0,14.4,6A20.22,20.22,0,0,0,2534,533.58Z"/></g><circle class="29872171-3695-4093-a160-195e607e3737" cx="2571.5" cy="654.93" r="8"/><path class="29872171-3695-4093-a160-195e607e3737" d="M2571.5,668.87a13.94,13.94,0,1,1,9.85-23.79h0a13.94,13.94,0,0,1-9.85,23.79Zm0-26.86a12.93,12.93,0,1,0,9.15,3.78A12.89,12.89,0,0,0,2571.5,642Z"/><g class="82c20056-6839-4a19-91d9-61a53f65f14f"><path class="29872171-3695-4093-a160-195e607e3737" d="M2571.5,676.28a21.35,21.35,0,1,1,15.1-6.25A21.29,21.29,0,0,1,2571.5,676.28Zm0-41.7a20.35,20.35,0,1,0,14.4,6A20.3,20.3,0,0,0,2571.5,634.58Z"/></g><circle class="29872171-3695-4093-a160-195e607e3737" cx="2826.49" cy="399.95" r="8"/><path class="29872171-3695-4093-a160-195e607e3737" d="M2826.49,413.88a13.94,13.94,0,1,1,9.85-23.79h0a13.94,13.94,0,0,1-9.85,23.79Zm0-26.87a12.94,12.94,0,1,0,9.15,3.79A12.85,12.85,0,0,0,2826.49,387Z"/><g class="82c20056-6839-4a19-91d9-61a53f65f14f"><path class="29872171-3695-4093-a160-195e607e3737" d="M2826.49,421.31a21.36,21.36,0,1,1,15.1-36.46h0a21.36,21.36,0,0,1-15.1,36.46Zm0-41.72a20.36,20.36,0,1,0,14.4,6A20.23,20.23,0,0,0,2826.49,379.59Z"/></g><circle class="29872171-3695-4093-a160-195e607e3737" cx="2916.48" cy="567.94" r="8"/><path class="29872171-3695-4093-a160-195e607e3737" d="M2916.48,581.87a13.93,13.93,0,1,1,9.85-23.78h0a13.93,13.93,0,0,1-9.85,23.78Zm0-26.86a12.94,12.94,0,1,0,9.15,3.79h0A12.85,12.85,0,0,0,2916.48,555Z"/><g class="82c20056-6839-4a19-91d9-61a53f65f14f"><path class="29872171-3695-4093-a160-195e607e3737" d="M2916.48,589.29a21.36,21.36,0,1,1,15.1-36.45h0a21.35,21.35,0,0,1-15.1,36.45Zm0-41.7a20.34,20.34,0,1,0,14.4,6h0A20.3,20.3,0,0,0,2916.48,547.59Z"/></g><circle class="29872171-3695-4093-a160-195e607e3737" cx="759.98" cy="432.68" r="8"/><path class="29872171-3695-4093-a160-195e607e3737" d="M760,446.61a13.93,13.93,0,1,1,9.85-23.78h0A13.93,13.93,0,0,1,760,446.61Zm0-26.86a12.94,12.94,0,1,0,9.15,3.79h0A12.85,12.85,0,0,0,760,419.75Z"/><g class="82c20056-6839-4a19-91d9-61a53f65f14f"><path class="29872171-3695-4093-a160-195e607e3737" d="M760,454a21.35,21.35,0,1,1,15.1-36.45h0A21.35,21.35,0,0,1,760,454Zm0-41.71a20.36,20.36,0,1,0,14.4,6h0A20.22,20.22,0,0,0,760,412.32Z"/></g><circle class="29872171-3695-4093-a160-195e607e3737" cx="932.65" cy="512.68" r="8"/><path class="29872171-3695-4093-a160-195e607e3737" d="M932.65,526.62a13.94,13.94,0,1,1,9.85-23.79h0a13.94,13.94,0,0,1-9.85,23.79Zm0-26.87a12.94,12.94,0,1,0,9.15,3.79h0A12.85,12.85,0,0,0,932.65,499.75Z"/><g class="82c20056-6839-4a19-91d9-61a53f65f14f"><path class="29872171-3695-4093-a160-195e607e3737" d="M932.65,534a21.36,21.36,0,1,1,15.1-36.46h0A21.36,21.36,0,0,1,932.65,534Zm0-41.72a20.36,20.36,0,1,0,14.4,6h0A20.22,20.22,0,0,0,932.65,492.32Z"/></g><circle class="29872171-3695-4093-a160-195e607e3737" cx="1209.98" cy="496.02" r="8"/><path class="29872171-3695-4093-a160-195e607e3737" d="M1210,509.94a13.93,13.93,0,1,1,9.85-23.78h0a13.93,13.93,0,0,1-9.85,23.78Zm0-26.86a12.93,12.93,0,1,0,9.15,3.78h0A12.89,12.89,0,0,0,1210,483.09Z"/><g class="82c20056-6839-4a19-91d9-61a53f65f14f"><path class="29872171-3695-4093-a160-195e607e3737" d="M1210,517.37a21.36,21.36,0,1,1,15.1-36.45h0a21.35,21.35,0,0,1-15.1,36.45Zm0-41.7a20.35,20.35,0,1,0,14.4,6A20.3,20.3,0,0,0,1210,475.67Z"/></g><circle class="29872171-3695-4093-a160-195e607e3737" cx="1372.48" cy="238.35" r="8"/><path class="29872171-3695-4093-a160-195e607e3737" d="M1372.48,252.28a13.92,13.92,0,1,1,9.85-4.07A13.89,13.89,0,0,1,1372.48,252.28Zm0-26.86a12.93,12.93,0,1,0,9.15,3.78A12.89,12.89,0,0,0,1372.48,225.42Z"/><g class="82c20056-6839-4a19-91d9-61a53f65f14f"><path class="29872171-3695-4093-a160-195e607e3737" d="M1372.48,259.7a21.34,21.34,0,1,1,15.1-6.25A21.29,21.29,0,0,1,1372.48,259.7Zm0-41.7a20.34,20.34,0,1,0,14.4,6A20.3,20.3,0,0,0,1372.48,218Z"/></g><circle class="29872171-3695-4093-a160-195e607e3737" cx="1449.48" cy="332.35" r="8"/><path class="29872171-3695-4093-a160-195e607e3737" d="M1449.48,346.28a13.92,13.92,0,1,1,9.85-4.07A13.89,13.89,0,0,1,1449.48,346.28Zm0-26.86a12.93,12.93,0,1,0,9.15,3.78A12.89,12.89,0,0,0,1449.48,319.42Z"/><g class="82c20056-6839-4a19-91d9-61a53f65f14f"><path class="29872171-3695-4093-a160-195e607e3737" d="M1449.48,353.7a21.34,21.34,0,1,1,15.1-6.25A21.29,21.29,0,0,1,1449.48,353.7Zm0-41.7a20.34,20.34,0,1,0,14.4,6A20.3,20.3,0,0,0,1449.48,312Z"/></g><circle class="29872171-3695-4093-a160-195e607e3737" cx="1581.48" cy="436.35" r="8"/><path class="29872171-3695-4093-a160-195e607e3737" d="M1581.48,450.28a13.92,13.92,0,1,1,9.85-4.07A13.89,13.89,0,0,1,1581.48,450.28Zm0-26.86a12.93,12.93,0,1,0,9.15,3.78A12.89,12.89,0,0,0,1581.48,423.42Z"/><g class="82c20056-6839-4a19-91d9-61a53f65f14f"><path class="29872171-3695-4093-a160-195e607e3737" d="M1581.48,457.7a21.34,21.34,0,1,1,15.1-6.25A21.29,21.29,0,0,1,1581.48,457.7Zm0-41.7a20.34,20.34,0,1,0,14.4,6A20.3,20.3,0,0,0,1581.48,416Z"/></g><circle class="29872171-3695-4093-a160-195e607e3737" cx="1634.48" cy="340.35" r="8"/><path class="29872171-3695-4093-a160-195e607e3737" d="M1634.48,354.28a13.92,13.92,0,1,1,9.85-4.07A13.89,13.89,0,0,1,1634.48,354.28Zm0-26.86a12.93,12.93,0,1,0,9.15,3.78A12.89,12.89,0,0,0,1634.48,327.42Z"/><g class="82c20056-6839-4a19-91d9-61a53f65f14f"><path class="29872171-3695-4093-a160-195e607e3737" d="M1634.48,361.7a21.34,21.34,0,1,1,15.1-6.25A21.29,21.29,0,0,1,1634.48,361.7Zm0-41.7a20.34,20.34,0,1,0,14.4,6A20.3,20.3,0,0,0,1634.48,320Z"/></g><circle class="29872171-3695-4093-a160-195e607e3737" cx="1889.48" cy="21.35" r="8"/><path class="29872171-3695-4093-a160-195e607e3737" d="M1889.48,35.28a13.92,13.92,0,1,1,9.85-4.07A13.89,13.89,0,0,1,1889.48,35.28Zm0-26.86a12.93,12.93,0,1,0,9.15,3.78A12.89,12.89,0,0,0,1889.48,8.42Z"/><g class="82c20056-6839-4a19-91d9-61a53f65f14f"><path class="29872171-3695-4093-a160-195e607e3737" d="M1889.48,42.7a21.34,21.34,0,1,1,15.1-6.25A21.29,21.29,0,0,1,1889.48,42.7Zm0-41.7a20.34,20.34,0,1,0,14.4,6A20.3,20.3,0,0,0,1889.48,1Z"/></g><circle class="29872171-3695-4093-a160-195e607e3737" cx="1946.48" cy="111.35" r="8"/><path class="29872171-3695-4093-a160-195e607e3737" d="M1946.48,125.28a13.92,13.92,0,1,1,9.85-4.07A13.89,13.89,0,0,1,1946.48,125.28Zm0-26.86a12.93,12.93,0,1,0,9.15,3.78A12.89,12.89,0,0,0,1946.48,98.42Z"/><g class="82c20056-6839-4a19-91d9-61a53f65f14f"><path class="29872171-3695-4093-a160-195e607e3737" d="M1946.48,132.7a21.34,21.34,0,1,1,15.1-6.25A21.29,21.29,0,0,1,1946.48,132.7Zm0-41.7a20.34,20.34,0,1,0,14.4,6A20.3,20.3,0,0,0,1946.48,91Z"/></g><path class="29872171-3695-4093-a160-195e607e3737" d="M85.21,930l2-2.36L361.46,609.47.39,761.66,0,760.73l362.93-153,.3-.35.26.29,191.72,30,5.15-1.72L759.48,430.84l.32.15,173.59,80.67,275.65-15L1373,237.1l.44.54,76.14,94,182.55,9,256.94-321,.38.58,58.25,89.5,243.56,57.13-.44.61L2046.39,368l-.33-.86-98.9-256.21L1632.73,341.5l-51,96.71-.47-.38L1449.32,332.77,1209.91,497.37l30.42,92.28-.88-.22L933.31,512.69,560.9,636.83l-.52.52L452,709.59h0Zm278-321L90,925.89l361.3-217.08Zm1.29-.05,87.67,99.38,105.63-70.42-2.53.84-.12,0ZM759.7,432,562.41,635.27,931.95,512.09Zm176.89,80.44,302.22,75.74L1209,497.69Zm436.52-273.68L1211,495.38,1448.61,332Zm77.76,93.92,130.52,104,50.16-95.06Zm497.33-221.9,98.46,255.07,142.91-198.46ZM1889,21.32l-253.88,317.2L1946.71,110Z"/><polygon class="29872171-3695-4093-a160-195e607e3737" points="2298.05 590.66 2297.94 590.23 2189.92 167.11 2190.89 166.86 2298.79 589.54 2533.28 553.5 2824.34 396.35 3133.48 396.35 3133.48 397.35 2824.6 397.35 2533.6 554.46 2533.52 554.48 2298.05 590.66"/><polygon class="29872171-3695-4093-a160-195e607e3737" points="2570.23 656.88 2569.33 656.67 2298.18 590.56 2298.09 590.48 2046.19 367.32 2046.86 366.57 2298.66 589.65 2568.67 655.48 2532.97 554.15 2533.91 553.82 2570.23 656.88"/><path class="29872171-3695-4093-a160-195e607e3737" d="M3174.13,884.52,2916.3,569.74,2567.84,657.1l1.25-1.27L2824.59,396l.32.6,92,172.28,258,315ZM2824.35,397.69l-253.3,257.58,344.69-86.42Z"/></g></g></svg>